Coordinates
version=1
nRows=5
nColumns=40
inDegrees=yes

Units are S.I. units (second, meters, Newtons, ...)
Angles are in degrees.

endheader
time	pelvis_tilt	pelvis_list	pelvis_rotation	pelvis_tx	pelvis_ty	pelvis_tz	hip_flexion_r	hip_adduction_r	hip_rotation_r	knee_angle_r	knee_angle_r_beta	ankle_angle_r	subtalar_angle_r	mtp_angle_r	hip_flexion_l	hip_adduction_l	hip_rotation_l	knee_angle_l	knee_angle_l_beta	ankle_angle_l	subtalar_angle_l	mtp_angle_l	lumbar_extension	lumbar_bending	lumbar_rotation	arm_flex_r	arm_add_r	arm_rot_r	elbow_flex_r	pro_sup_r	wrist_flex_r	wrist_dev_r	arm_flex_l	arm_add_l	arm_rot_l	elbow_flex_l	pro_sup_l	wrist_flex_l	wrist_dev_l
     25.85414286	     -4.70736770	     -4.36307643	      1.45714684	      0.89957991	      0.93088067	      0.40456208	     32.01924534	     -6.72384732	     -6.33922230	     58.96350007	     58.96350007	      4.91448859	    -15.27756005	      1.71926365	     14.09857632	     -5.66708693	     -4.40979498	     22.11362478	     22.11362478	     14.21046507	    -12.98042481	      3.10450874	    -10.62942170	      5.50708675	      5.84700777	      9.90530400	    -15.02546592	    -10.27667181	     30.34234030	     46.82142315	      0.00000000	      0.00000000	     18.35472283	    -38.55604770	    -21.44269309	     47.11225099	     47.87662899	      0.00000000	      0.00000000
     25.86578571	     -4.87805548	     -4.47407512	      1.06852871	      0.89888077	      0.93118260	      0.40566401	     32.69360276	     -6.37794572	     -6.50128910	     57.28902527	     57.28902527	      5.10314058	    -14.74990565	      1.70154922	     13.71619654	     -5.89556751	     -4.75183834	     21.68792138	     21.68792138	     14.25665271	    -12.92570649	      3.11096328	    -10.72899317	      5.69833153	      5.86019878	      8.95212335	    -15.45601578	    -10.61318926	     29.50219348	     46.86928249	      0.00000000	      0.00000000	     18.52783177	    -39.44181528	    -21.59549148	     47.35138446	     47.89982827	      0.00000000	      0.00000000
     25.87742857	     -5.02856281	     -4.54854425	      0.68960347	      0.89823254	      0.93147321	      0.40688899	     33.24747590	     -6.02499368	     -6.63856181	     55.37685814	     55.37685814	      5.25340948	    -14.10288733	      1.70701388	     13.29577758	     -6.08106389	     -5.07073166	     21.25775968	     21.25775968	     14.35485068	    -12.84400455	      3.08452346	    -10.82040336	      5.82123381	      5.82593582	      8.09780617	    -15.88559688	    -10.91676496	     28.76588495	     46.91300738	      0.00000000	      0.00000000	     18.67949654	    -40.30672915	    -21.71052810	     47.51888078	     47.91836468	      0.00000000	      0.00000000
     25.88907143	     -5.03350992	     -4.60681322	      0.33130190	      0.89780164	      0.93203367	      0.40811534	     33.43689640	     -5.72927237	     -6.90920722	     53.11601520	     53.11601520	      5.40579770	    -13.20179930	      1.41117849	     12.59305288	     -6.27126705	     -5.57208746	     20.61816521	     20.61816521	     14.35605984	    -12.48745306	      2.87991356	    -11.07715070	      5.94684011	      5.89241413	      7.49935489	    -16.30204904	    -11.71121211	     27.39773546	     47.01786328	      0.00000000	      0.00000000	     18.88300553	    -41.08782741	    -21.51001666	     47.79576902	     47.91434134	      0.00000000	      0.00000000
     25.90071429	     -5.24210849	     -4.65938691	      0.01108085	      0.89731378	      0.93208233	      0.40947793	     33.68923814	     -5.39853884	     -7.22521052	     50.51971224	     50.51971224	      4.93140431	    -12.79460107	     -0.50451225	     12.19052064	     -6.45316949	     -6.00570787	     20.07525321	     20.07525321	     14.03770135	    -12.36710026	      1.76119923	    -11.02762543	      6.05612201	      5.84109983	      7.91584364	    -16.23098110	    -16.28097850	     23.96022775	     47.46771958	      0.00000000	      0.00000000	     18.92504361	    -42.32069083	    -19.71805321	     47.63803202	     47.80459431	      0.00000000	      0.00000000
